<svg data-v-423bf9ae="" xmlns="http://www.w3.org/2000/svg" viewBox="0 0 355 90" class="iconLeftSlogan"><!----><!----><!----><g data-v-423bf9ae="" id="8c592983-b586-487a-a171-99e8c1218100" fill="#EA7140" transform="matrix(3.494467078240729,0,0,3.494467078240729,76.80694749415801,-17.996506263035265)"><path d="M8.46 16.24L8.69 16.41Q8.29 17.25 7.71 17.72Q7.14 18.20 6.54 18.20L6.54 18.20Q6.03 18.20 5.71 18.01Q5.39 17.82 5.14 17.46Q4.89 17.11 4.40 16.27L4.40 16.27L3.14 14.14L2.56 14.83L2.56 17.81L1.26 18.28L1.26 8.37L2.56 7.87L2.56 13.80L7.36 8.12L8.22 8.19L3.99 13.13L5.98 16.46Q6.26 16.97 6.48 17.14Q6.71 17.32 7.06 17.30L7.06 17.30Q7.41 17.30 7.79 17.00Q8.18 16.70 8.46 16.24L8.46 16.24ZM13.36 10.96Q14.11 10.96 14.62 11.37Q15.12 11.77 15.12 12.57L15.12 12.57Q15.12 13.22 14.43 14.01Q13.73 14.80 12.80 15.46Q11.87 16.11 11.21 16.38L11.21 16.38Q11.56 16.94 12.01 17.16Q12.46 17.37 13.06 17.37L13.06 17.37Q13.73 17.37 14.40 17.03Q15.06 16.69 15.50 16.14L15.50 16.14L15.67 16.44Q14.98 17.32 14.21 17.79Q13.44 18.26 12.32 18.26L12.32 18.26Q11.47 18.26 10.79 17.84Q10.12 17.42 9.74 16.71Q9.37 16.00 9.37 15.18L9.37 15.18Q9.37 14.14 9.93 13.16Q10.49 12.18 11.41 11.57Q12.33 10.96 13.36 10.96L13.36 10.96ZM12.63 11.84Q12.01 11.84 11.53 12.24Q11.05 12.63 10.77 13.24Q10.50 13.86 10.50 14.52L10.50 14.52Q10.50 15.39 10.91 16.00L10.91 16.00Q11.49 15.74 12.18 15.20Q12.87 14.66 13.34 14.03Q13.82 13.40 13.82 12.88L13.82 12.88Q13.82 11.84 12.63 11.84L12.63 11.84ZM18.59 5.15L18.59 16.91Q18.59 17.08 18.69 17.23Q18.79 17.39 19.03 17.39L19.03 17.39Q19.22 17.39 19.44 17.21Q19.66 17.04 19.77 16.84L19.77 16.84L20.01 17.05Q19.77 17.51 19.35 17.84Q18.93 18.16 18.51 18.16L18.51 18.16Q17.33 18.16 17.33 16.74L17.33 16.74L17.33 5.68L18.59 5.15ZM24.61 11.09Q25.30 11.09 25.91 11.38Q26.52 11.68 26.80 12.28L26.80 12.28L25.79 12.82Q25.56 12.50 25.17 12.24Q24.78 11.98 24.33 11.98L24.33 11.98Q23.62 11.98 23.09 12.36Q22.55 12.73 22.27 13.36Q21.99 13.99 21.99 14.76L21.99 14.76Q21.99 15.86 22.37 16.55Q22.75 17.25 23.56 17.25L23.56 17.25Q24.71 17.25 25.14 16.32Q25.58 15.40 25.58 14.31L25.58 14.31L25.58 13.68L26.81 13.16L26.81 16.84Q26.81 17.02 26.91 17.19Q27.01 17.36 27.20 17.36L27.20 17.36Q27.61 17.36 27.94 16.80L27.94 16.80L28.15 17.02Q27.99 17.50 27.57 17.83Q27.15 18.16 26.73 18.16L26.73 18.16Q26.12 18.16 25.84 17.71Q25.55 17.26 25.55 16.52L25.55 16.52L25.52 16.52Q25.17 17.26 24.58 17.76Q23.98 18.26 23.32 18.26L23.32 18.26Q22.13 18.26 21.52 17.44Q20.92 16.62 20.92 15.25L20.92 15.25Q20.92 14.15 21.41 13.20Q21.90 12.24 22.74 11.66Q23.59 11.09 24.61 11.09L24.61 11.09ZM30.83 5.15L30.83 16.91Q30.83 17.08 30.93 17.23Q31.02 17.39 31.26 17.39L31.26 17.39Q31.46 17.39 31.68 17.21Q31.89 17.04 32.00 16.84L32.00 16.84L32.24 17.05Q32.00 17.51 31.58 17.84Q31.16 18.16 30.74 18.16L30.74 18.16Q29.57 18.16 29.57 16.74L29.57 16.74L29.57 5.68L30.83 5.15ZM38.33 7.92Q39.17 7.92 39.70 8.29Q40.24 8.65 40.24 9.24L40.24 9.24Q40.24 9.81 39.78 10.39Q39.33 10.96 38.61 11.35Q37.88 11.75 37.13 11.80L37.13 11.80L36.99 11.54Q37.73 11.35 38.25 10.82Q38.77 10.28 38.77 9.70L38.77 9.70Q38.77 9.24 38.44 8.97Q38.12 8.69 37.59 8.69L37.59 8.69Q36.64 8.69 35.88 9.32Q35.13 9.94 34.70 11.03Q34.27 12.12 34.27 13.50L34.27 13.50Q34.27 15.18 34.83 16.13Q35.39 17.08 36.51 17.08L36.51 17.08Q37.16 17.08 37.75 16.62Q38.35 16.16 38.72 15.42Q39.10 14.69 39.12 13.90L39.12 13.90L40.45 13.44L40.45 19.08L39.21 19.59L39.21 15.30L39.13 15.30Q38.92 16.18 38.44 16.84Q37.95 17.50 37.30 17.85Q36.65 18.20 35.95 18.20L35.95 18.20Q35 18.20 34.29 17.75Q33.57 17.29 33.19 16.45Q32.80 15.61 32.80 14.49L32.80 14.49Q32.80 12.66 33.53 11.15Q34.26 9.65 35.52 8.79Q36.79 7.92 38.33 7.92L38.33 7.92ZM45.98 10.96Q46.73 10.96 47.24 11.37Q47.74 11.77 47.74 12.57L47.74 12.57Q47.74 13.22 47.05 14.01Q46.35 14.80 45.42 15.46Q44.49 16.11 43.83 16.38L43.83 16.38Q44.18 16.94 44.63 17.16Q45.08 17.37 45.68 17.37L45.68 17.37Q46.35 17.37 47.02 17.03Q47.68 16.69 48.12 16.14L48.12 16.14L48.29 16.44Q47.60 17.32 46.83 17.79Q46.06 18.26 44.94 18.26L44.94 18.26Q44.09 18.26 43.41 17.84Q42.74 17.42 42.36 16.71Q41.99 16.00 41.99 15.18L41.99 15.18Q41.99 14.14 42.55 13.16Q43.11 12.18 44.03 11.57Q44.95 10.96 45.98 10.96L45.98 10.96ZM45.25 11.84Q44.63 11.84 44.15 12.24Q43.67 12.63 43.39 13.24Q43.12 13.86 43.12 14.52L43.12 14.52Q43.12 15.39 43.53 16.00L43.53 16.00Q44.11 15.74 44.80 15.20Q45.49 14.66 45.96 14.03Q46.44 13.40 46.44 12.88L46.44 12.88Q46.44 11.84 45.25 11.84L45.25 11.84ZM55.64 14.39Q55.64 15.25 55.09 16.16Q54.54 17.07 53.74 17.66Q52.93 18.26 52.22 18.26L52.22 18.26Q51.07 18.26 50.42 17.48Q49.77 16.70 49.77 15.50L49.77 15.50L49.77 5.68L51.04 5.15L51.04 15.81Q51.04 16.48 51.45 16.98Q51.86 17.49 52.60 17.49L52.60 17.49Q53.21 17.49 53.67 17.14Q54.12 16.79 54.36 16.28Q54.59 15.76 54.59 15.30L54.59 15.30Q54.59 14.60 54.22 13.86Q53.86 13.12 53.28 12.64Q52.70 12.17 52.07 12.17L52.07 12.17L53.31 11.13Q53.91 11.33 54.45 11.88Q54.99 12.43 55.31 13.13Q55.64 13.82 55.64 14.39L55.64 14.39ZM60.90 10.96Q61.66 10.96 62.16 11.37Q62.66 11.77 62.66 12.57L62.66 12.57Q62.66 13.22 61.97 14.01Q61.28 14.80 60.35 15.46Q59.42 16.11 58.76 16.38L58.76 16.38Q59.11 16.94 59.56 17.16Q60.00 17.37 60.61 17.37L60.61 17.37Q61.28 17.37 61.94 17.03Q62.61 16.69 63.04 16.14L63.04 16.14L63.21 16.44Q62.52 17.32 61.75 17.79Q60.98 18.26 59.86 18.26L59.86 18.26Q59.01 18.26 58.34 17.84Q57.67 17.42 57.29 16.71Q56.91 16.00 56.91 15.18L56.91 15.18Q56.91 14.14 57.47 13.16Q58.03 12.18 58.95 11.57Q59.88 10.96 60.90 10.96L60.90 10.96ZM60.17 11.84Q59.56 11.84 59.07 12.24Q58.59 12.63 58.32 13.24Q58.04 13.86 58.04 14.52L58.04 14.52Q58.04 15.39 58.45 16.00L58.45 16.00Q59.04 15.74 59.72 15.20Q60.41 14.66 60.89 14.03Q61.36 13.40 61.36 12.88L61.36 12.88Q61.36 11.84 60.17 11.84L60.17 11.84ZM70.36 10.89L70.36 17.33Q70.36 18.65 69.84 19.80Q69.31 20.94 68.45 21.63Q67.58 22.32 66.60 22.32L66.60 22.32Q66.22 22.32 65.88 22.20Q65.55 22.09 65.18 21.83L65.18 21.83L66.16 20.58Q66.46 20.87 66.86 21.06Q67.26 21.24 67.61 21.24L67.61 21.24Q68.04 21.24 68.39 20.72Q68.74 20.20 68.94 19.29Q69.15 18.38 69.15 17.23L69.15 17.23Q69.15 14.63 69.16 13.89L69.16 13.89L69.16 13.05L69.08 13.05Q67.93 18.26 66.09 18.26L66.09 18.26Q65.69 18.26 65.49 18.10Q65.30 17.93 65.23 17.51Q65.16 17.09 65.16 16.24L65.16 16.24L65.16 12.29Q65.16 12.07 65.04 11.91Q64.93 11.76 64.76 11.76L64.76 11.76Q64.41 11.76 64.02 12.33L64.02 12.33L63.80 12.11Q64.11 11.45 64.41 11.21Q64.71 10.98 65.28 10.98L65.28 10.98Q65.84 10.98 66.12 11.33Q66.40 11.69 66.40 12.38L66.40 12.38L66.40 16.20Q66.40 16.72 66.70 16.72L66.70 16.72Q67.05 16.72 67.59 15.76Q68.14 14.81 68.56 13.56Q68.98 12.31 68.98 11.52L68.98 11.52L70.36 10.89ZM75.89 11.09Q76.58 11.09 77.19 11.38Q77.80 11.68 78.08 12.28L78.08 12.28L77.07 12.82Q76.85 12.50 76.45 12.24Q76.06 11.98 75.61 11.98L75.61 11.98Q74.90 11.98 74.37 12.36Q73.84 12.73 73.56 13.36Q73.28 13.99 73.28 14.76L73.28 14.76Q73.28 15.86 73.65 16.55Q74.03 17.25 74.84 17.25L74.84 17.25Q75.99 17.25 76.43 16.32Q76.86 15.40 76.86 14.31L76.86 14.31L76.86 13.68L78.09 13.16L78.09 16.84Q78.09 17.02 78.19 17.19Q78.29 17.36 78.48 17.36L78.48 17.36Q78.89 17.36 79.23 16.80L79.23 16.80L79.44 17.02Q79.27 17.50 78.85 17.83Q78.43 18.16 78.01 18.16L78.01 18.16Q77.41 18.16 77.12 17.71Q76.83 17.26 76.83 16.52L76.83 16.52L76.80 16.52Q76.45 17.26 75.86 17.76Q75.26 18.26 74.61 18.26L74.61 18.26Q73.42 18.26 72.81 17.44Q72.20 16.62 72.20 15.25L72.20 15.25Q72.20 14.15 72.69 13.20Q73.18 12.24 74.03 11.66Q74.87 11.09 75.89 11.09L75.89 11.09Z"></path></g><!----><g data-v-423bf9ae="" id="d01cc481-1dd7-449d-841d-d8bdc3e04200" transform="matrix(1.0337767280352417,0,0,1.0337767280352417,-20.29345799976015,-6.2175417636924735)" stroke="none" fill="#EA7140"><path d="M74.2 30.8c2.1-5-2.5-10.6-8-8.8l-4.1 1.3 3.3-7.9c3.2-7.8-8.8-12.9-12.1-5l-7.6 18.2-1.3.4c-1.6.5-2.8 1.5-3.5 2.8-.4-.1-.8-.2-1.2-.2L42 29c5.6-6.4-4.2-14.9-9.7-8.5-.2.2-11.2 12.5-11.3 12.7-1.2 2.1-.4 5.3.3 8.1.8 3 7.5 26.1 12.5 33.6.6.8 1.6 1.9 2.6 2.8h-.2c-.8 0-1.5.7-1.5 1.5V92c0 .8.7 1.5 1.5 1.5h29.6c.8 0 1.5-.7 1.5-1.5V79.4c0-.8-.7-1.5-1.5-1.5h-1.2c3-10.9 4.8-16.2 4.9-19s-.9-6.1-.8-8.5c.1-.9 2.1-4.8 2.6-5.6 2.4-2.2 5.6-2 7.4-5.2 2-3.4.7-7.5-4.5-8.8zM56.1 11.6c1.7-4.2 8.3-1.5 6.5 2.7l-4.3 10.2-8.8 2.9 6.6-15.8zm8.3 78.9H37.8v-9.6h26.6v9.6zm11.8-52.4c-.9 1.7-5 2.5-7 4.6-.4.5-3.3 5.7-3.4 7.5-.1 2.8.9 6.1.8 8.5s-1.9 7.7-5 19.1H41.1c-1.4-1.1-4-3.4-4.7-4.5-4.7-7-11.3-29.9-12.1-32.7-.5-1.7-1.2-4.6-.7-5.7l11-12.3c3-3.4 8.1 1.1 5.2 4.5L33 34.7c-.2.2-.3.5-.4.8l-.4 3.4c-.2 2 2.8 2.3 3 .3l.3-2.9.6-.7 2.7-1c1.8-.5 4.3 1.9 4.6 2.6l6.3 19.4c1.4 4.3-5.3 6.6-6.7 2.2l-4.9-15.1c-.6-1.9-3.5-1-2.9.9l4.9 15.1c2.6 8.1 15.1 4.1 12.4-4.1l-6.3-19.4c-.3-.9-1.3-2.1-2.7-3.1.4-.6 1-1 1.8-1.2l21.8-7.1c4.3-1.4 6.5 5.3 2.2 6.7-4.1 1.3-12.5 4.1-16.5 5.4-.4.1-.7.5-.9.8l-2.2 4.9c-.8 1.8 1.9 3 2.7 1.2l1.3-3v6.3c0 1.5 2 2.1 2.8.8l6.8-11.3c7.4-2.4 7.6-2.4 8.6-3.1 3.3.3 5.8 1.9 4.3 4.6zm-19.3.7l2.2-.7-2.2 3.7v-3z"></path></g><!----><g data-v-423bf9ae="" id="993f3d19-4237-427c-ae1e-7f567968d643" fill="#EA7140" transform="matrix(0.39952825056313485,0,0,0.39952825056313485,80.64663922395766,58.110230251937175)"><path d="M10.54 5.74L10.54 5.74Q10.58 5.98 10.61 6.07Q10.63 6.16 10.63 6.31L10.63 6.31Q10.63 6.78 10.42 7.18Q10.22 7.57 9.87 7.74L9.87 7.74Q9.59 7.36 9.18 7.09Q8.78 6.82 8.29 6.64Q7.81 6.47 7.29 6.38Q6.78 6.30 6.29 6.30L6.29 6.30Q5.80 6.30 5.37 6.38Q4.94 6.45 4.61 6.59Q4.28 6.72 4.09 6.92Q3.91 7.11 3.91 7.36L3.91 7.36Q3.95 7.67 4.28 7.99Q4.62 8.30 5.11 8.60Q5.60 8.90 6.20 9.20Q6.79 9.49 7.36 9.76L7.36 9.76Q8.08 10.09 8.60 10.38Q9.11 10.67 9.45 11.01Q9.79 11.35 9.95 11.79Q10.12 12.22 10.12 12.84L10.12 12.84Q10.12 13.55 9.88 14.18Q9.65 14.80 9.19 15.26Q8.74 15.72 8.09 15.98Q7.45 16.24 6.65 16.24L6.65 16.24Q5.87 16.24 4.96 16.00Q4.05 15.76 3.25 15.35Q2.46 14.94 1.94 14.40Q1.41 13.86 1.41 13.26L1.41 13.26Q1.41 12.98 1.57 12.54Q1.74 12.11 2.16 11.63L2.16 11.63Q2.20 12.05 2.61 12.63Q3.02 13.20 3.85 13.69L3.85 13.69Q4.62 14.14 5.44 14.34Q6.26 14.55 6.97 14.55L6.97 14.55Q7.76 14.55 8.25 14.35Q8.74 14.15 9.02 13.88Q9.30 13.61 9.41 13.33Q9.52 13.05 9.53 12.88L9.53 12.88Q9.52 12.60 9.28 12.34Q9.03 12.08 8.62 11.84Q8.20 11.59 7.66 11.34Q7.11 11.09 6.52 10.84L6.52 10.84Q5.64 10.44 5.00 10.10Q4.37 9.76 3.96 9.40Q3.54 9.04 3.35 8.65Q3.16 8.26 3.16 7.76L3.16 7.76Q3.16 6.97 3.64 6.27Q4.12 5.57 5.01 5.21L5.01 5.21Q5.46 5.01 5.97 4.93Q6.48 4.84 6.97 4.84L6.97 4.84Q7.90 4.84 8.78 5.10Q9.66 5.35 10.54 5.74ZM23.70 14.36L23.70 14.36Q23.70 13.78 23.90 12.85Q24.09 11.93 24.42 10.88L24.42 10.88Q23.49 10.95 22.56 11.06Q21.63 11.17 20.94 11.19L20.94 11.19Q20.31 12.66 19.94 13.89Q19.57 15.13 19.36 16.31L19.36 16.31Q18.83 16.18 18.48 15.87Q18.13 15.55 17.84 15.08L17.84 15.08Q17.95 14.85 18.09 14.50Q18.24 14.15 18.45 13.66Q18.65 13.16 18.91 12.50Q19.17 11.83 19.50 10.95L19.50 10.95Q19.04 10.75 18.89 10.40L18.89 10.40Q18.96 10.35 19.20 10.28Q19.45 10.22 19.81 10.15L19.81 10.15L19.99 9.70Q20.29 8.95 20.48 8.43Q20.66 7.91 20.80 7.41Q20.93 6.92 21.05 6.31Q21.17 5.71 21.34 4.79L21.34 4.79Q21.92 4.90 22.41 5.31Q22.89 5.71 23.24 6.29L23.24 6.29Q23.11 6.45 22.93 6.79Q22.75 7.13 22.53 7.59Q22.32 8.06 22.06 8.64Q21.81 9.23 21.52 9.87L21.52 9.87Q22.39 9.76 23.27 9.66Q24.16 9.56 24.85 9.52L24.85 9.52Q25.10 8.79 25.38 8.10Q25.65 7.41 25.91 6.83Q26.18 6.26 26.42 5.82Q26.67 5.39 26.87 5.18L26.87 5.18Q27.01 5.19 27.24 5.29Q27.47 5.38 27.71 5.50Q27.94 5.63 28.14 5.78Q28.34 5.92 28.41 6.05L28.41 6.05Q28.15 6.29 27.90 6.66Q27.65 7.04 27.41 7.53Q27.16 8.02 26.92 8.60Q26.68 9.17 26.47 9.79L26.47 9.79Q26.75 10.04 26.75 10.42L26.75 10.42Q26.75 10.68 26.64 10.91L26.64 10.91Q26.52 10.88 26.39 10.87Q26.26 10.86 26.12 10.85L26.12 10.85Q25.89 11.61 25.69 12.35Q25.49 13.09 25.36 13.76Q25.23 14.43 25.15 14.99Q25.07 15.55 25.07 15.93L25.07 15.93Q25.07 16.07 25.08 16.16Q25.09 16.24 25.10 16.30L25.10 16.30Q24.79 16.28 24.65 16.19Q24.51 16.10 24.44 16.00Q24.37 15.89 24.32 15.79Q24.26 15.68 24.14 15.62L24.14 15.62Q24.04 15.58 23.95 15.43Q23.87 15.27 23.81 15.08Q23.76 14.88 23.73 14.69Q23.70 14.49 23.70 14.36ZM41.15 4.98L41.15 4.98Q41.41 5.10 41.69 5.27Q41.97 5.45 42.21 5.63Q42.45 5.81 42.61 5.98Q42.77 6.16 42.78 6.27L42.78 6.27Q42.55 6.22 42.31 6.20Q42.07 6.17 41.87 6.17L41.87 6.17Q41.24 6.17 40.62 6.48Q40.00 6.79 39.44 7.32Q38.88 7.85 38.40 8.57Q37.93 9.28 37.58 10.09Q37.24 10.91 37.04 11.77Q36.85 12.64 36.85 13.48L36.85 13.48Q36.85 14.57 37.21 15.11Q37.58 15.64 38.28 15.64L38.28 15.64Q38.61 15.64 39.00 15.51Q39.40 15.37 39.80 15.13Q40.21 14.90 40.60 14.56Q40.99 14.22 41.33 13.82L41.33 13.82Q41.82 13.23 42.21 12.48Q42.60 11.73 42.88 10.89Q43.15 10.05 43.30 9.16Q43.44 8.27 43.44 7.42L43.44 7.42Q43.44 7.08 43.43 6.85Q43.41 6.62 43.39 6.46Q43.37 6.30 43.36 6.20Q43.34 6.10 43.33 6.03L43.33 6.03Q43.50 6.12 43.70 6.24Q43.90 6.36 44.08 6.59Q44.25 6.82 44.37 7.20Q44.49 7.57 44.49 8.18L44.49 8.18Q44.49 9.16 44.26 10.10Q44.03 11.05 43.62 11.90Q43.20 12.75 42.64 13.50Q42.08 14.24 41.44 14.80L41.44 14.80Q40.60 15.54 39.65 15.95Q38.70 16.35 37.81 16.35L37.81 16.35Q36.53 16.35 35.85 15.53Q35.17 14.71 35.17 13.12L35.17 13.12Q35.17 12.26 35.36 11.31Q35.55 10.36 35.89 9.44Q36.23 8.51 36.71 7.68Q37.18 6.85 37.75 6.21Q38.32 5.57 38.97 5.19Q39.62 4.82 40.31 4.82L40.31 4.82Q40.53 4.82 40.73 4.85Q40.92 4.89 41.15 4.98ZM61.35 7.63L61.35 7.63Q61.35 8.40 60.96 9.10Q60.58 9.80 59.93 10.32Q59.28 10.85 58.40 11.16Q57.53 11.47 56.55 11.47L56.55 11.47Q56.20 11.47 55.99 11.38Q55.79 11.28 55.54 11.02L55.54 11.02Q54.84 12.54 54.40 13.82Q53.96 15.11 53.70 16.31L53.70 16.31Q53.17 16.18 52.84 15.87Q52.50 15.55 52.22 15.08L52.22 15.08Q52.36 14.81 52.56 14.38Q52.75 13.94 53.03 13.31Q53.31 12.67 53.68 11.78Q54.05 10.89 54.56 9.70L54.56 9.70Q54.78 9.16 54.95 8.75Q55.12 8.34 55.24 7.99Q55.37 7.63 55.48 7.28Q55.58 6.93 55.69 6.51L55.69 6.51Q55.03 6.72 54.48 7Q53.93 7.28 53.56 7.59L53.56 7.59Q53.44 7.50 53.30 7.34Q53.17 7.17 53.06 6.96Q52.95 6.76 52.86 6.55Q52.78 6.34 52.77 6.17L52.77 6.17Q53.17 5.89 53.77 5.66Q54.38 5.42 55.06 5.24Q55.75 5.07 56.48 4.97Q57.22 4.87 57.89 4.87L57.89 4.87Q58.69 4.87 59.33 5.07Q59.98 5.28 60.42 5.64Q60.87 6.01 61.11 6.51Q61.35 7.01 61.35 7.63ZM58.86 5.95L58.86 5.95Q58.32 5.95 57.76 6.03L57.76 6.03L57.93 6.29Q57.79 6.47 57.58 6.83Q57.37 7.20 57.12 7.71Q56.87 8.22 56.57 8.85Q56.27 9.48 55.93 10.18L55.93 10.18Q57.02 10.18 57.92 9.97Q58.81 9.77 59.45 9.41Q60.09 9.06 60.45 8.58Q60.80 8.11 60.80 7.56L60.80 7.56Q60.80 6.83 60.31 6.39Q59.82 5.95 58.86 5.95ZM65.46 17.54L65.46 17.54Q65.38 17.47 65.31 17.31Q65.24 17.15 65.24 17.01L65.24 17.01Q65.94 16.41 66.24 15.86Q66.54 15.32 66.54 14.67L66.54 14.67Q66.54 14.25 66.51 13.95Q66.47 13.65 66.37 13.26L66.37 13.26Q66.72 13.29 67.07 13.38Q67.41 13.47 67.68 13.60Q67.96 13.73 68.14 13.91Q68.32 14.08 68.36 14.25L68.36 14.25Q67.70 16.58 65.46 17.54ZM89.12 15.61L89.12 15.61Q89.05 15.04 89.02 14.36Q88.98 13.68 88.98 13.09L88.98 13.09Q88.98 12.15 89.05 11.29Q89.11 10.43 89.20 9.48Q89.29 8.54 89.40 7.43Q89.52 6.31 89.60 4.86L89.60 4.86Q89.78 4.86 90.12 4.96Q90.47 5.07 90.82 5.21Q91.17 5.35 91.43 5.49Q91.70 5.64 91.74 5.74L91.74 5.74Q91.50 6.29 91.31 7.18Q91.13 8.06 91.00 9.11Q90.87 10.16 90.80 11.27Q90.73 12.38 90.73 13.34L90.73 13.34Q90.73 13.79 90.75 14.22Q90.76 14.66 90.79 15.02L90.79 15.02Q91.08 14.59 91.47 13.78Q91.85 12.98 92.27 11.98Q92.68 10.99 93.09 9.91Q93.51 8.82 93.86 7.83Q94.21 6.85 94.45 6.05Q94.70 5.26 94.79 4.86L94.79 4.86Q94.98 4.86 95.33 4.96Q95.69 5.07 96.03 5.21Q96.38 5.35 96.64 5.49Q96.91 5.64 96.94 5.74L96.94 5.74Q96.70 6.29 96.51 7.18Q96.32 8.06 96.19 9.11Q96.07 10.16 96.00 11.27Q95.93 12.38 95.93 13.34L95.93 13.34Q95.93 13.75 95.93 14.15Q95.94 14.55 95.97 14.87L95.97 14.87Q96.42 13.71 96.90 12.56Q97.38 11.42 97.86 10.38Q98.34 9.34 98.78 8.43Q99.23 7.53 99.61 6.82Q99.99 6.12 100.27 5.66Q100.55 5.19 100.70 5.04L100.70 5.04Q101.02 5.08 101.37 5.27Q101.71 5.46 101.98 5.75L101.98 5.75Q101.57 6.08 101.05 6.81Q100.53 7.55 99.99 8.51Q99.44 9.48 98.89 10.57Q98.34 11.66 97.86 12.70Q97.38 13.73 97.01 14.63Q96.64 15.53 96.45 16.07L96.45 16.07Q96.08 16.24 95.73 16.24L95.73 16.24Q95.28 16.18 94.88 16.02Q94.49 15.85 94.32 15.61L94.32 15.61Q94.28 15.39 94.25 15.09Q94.22 14.78 94.21 14.49Q94.19 14.20 94.18 13.92Q94.18 13.65 94.18 13.45L94.18 13.45Q94.18 12.21 94.28 10.91Q94.37 9.62 94.51 8.13L94.51 8.13Q94.19 9.09 93.80 10.18Q93.41 11.27 92.98 12.34Q92.55 13.41 92.11 14.38Q91.67 15.36 91.25 16.07L91.25 16.07Q90.89 16.24 90.54 16.24L90.54 16.24Q90.09 16.18 89.69 16.02Q89.29 15.85 89.12 15.61ZM114.13 4.98L114.13 4.98Q114.39 5.10 114.67 5.27Q114.95 5.45 115.19 5.63Q115.43 5.81 115.59 5.98Q115.75 6.16 115.77 6.27L115.77 6.27Q115.53 6.22 115.29 6.20Q115.05 6.17 114.86 6.17L114.86 6.17Q114.23 6.17 113.60 6.48Q112.98 6.79 112.42 7.32Q111.86 7.85 111.38 8.57Q110.91 9.28 110.56 10.09Q110.22 10.91 110.03 11.77Q109.83 12.64 109.83 13.48L109.83 13.48Q109.83 14.57 110.19 15.11Q110.56 15.64 111.26 15.64L111.26 15.64Q111.59 15.64 111.99 15.51Q112.38 15.37 112.78 15.13Q113.19 14.90 113.58 14.56Q113.97 14.22 114.31 13.82L114.31 13.82Q114.80 13.23 115.19 12.48Q115.58 11.73 115.86 10.89Q116.13 10.05 116.28 9.16Q116.42 8.27 116.42 7.42L116.42 7.42Q116.42 7.08 116.41 6.85Q116.40 6.62 116.37 6.46Q116.35 6.30 116.34 6.20Q116.33 6.10 116.31 6.03L116.31 6.03Q116.48 6.12 116.68 6.24Q116.89 6.36 117.06 6.59Q117.24 6.82 117.35 7.20Q117.47 7.57 117.47 8.18L117.47 8.18Q117.47 9.16 117.24 10.10Q117.01 11.05 116.60 11.90Q116.19 12.75 115.63 13.50Q115.07 14.24 114.42 14.80L114.42 14.80Q113.58 15.54 112.63 15.95Q111.68 16.35 110.80 16.35L110.80 16.35Q109.51 16.35 108.83 15.53Q108.15 14.71 108.15 13.12L108.15 13.12Q108.15 12.26 108.34 11.31Q108.53 10.36 108.87 9.44Q109.21 8.51 109.69 7.68Q110.17 6.85 110.73 6.21Q111.30 5.57 111.95 5.19Q112.60 4.82 113.29 4.82L113.29 4.82Q113.51 4.82 113.71 4.85Q113.90 4.89 114.13 4.98ZM134.32 7.46L134.32 7.46Q134.32 8.13 134.01 8.73Q133.71 9.32 133.18 9.79Q132.65 10.26 131.94 10.58Q131.22 10.91 130.38 11.02L130.38 11.02Q130.59 11.65 130.89 12.31Q131.19 12.98 131.54 13.59Q131.89 14.21 132.27 14.73Q132.65 15.25 133.01 15.58L133.01 15.58Q132.94 15.72 132.81 15.86Q132.68 16.00 132.50 16.12Q132.33 16.24 132.14 16.32Q131.95 16.39 131.78 16.39L131.78 16.39Q131.47 16.39 131.19 16.10Q130.91 15.81 130.63 15.17Q130.34 14.53 130.02 13.52Q129.71 12.50 129.33 11.07L129.33 11.07Q129.18 11.07 129.02 11.07Q128.87 11.07 128.79 11.05L128.79 11.05Q128.69 10.99 128.58 10.85L128.58 10.85Q128.20 11.66 127.90 12.38Q127.61 13.09 127.38 13.76Q127.15 14.42 126.97 15.04Q126.80 15.67 126.67 16.31L126.67 16.31Q126.20 16.20 125.85 15.90Q125.50 15.61 125.19 15.08L125.19 15.08Q125.24 14.95 125.31 14.83Q125.37 14.71 125.47 14.50Q125.57 14.28 125.71 13.94Q125.86 13.61 126.10 13.05Q126.35 12.49 126.69 11.68Q127.04 10.86 127.53 9.70L127.53 9.70Q127.75 9.18 127.91 8.79Q128.07 8.40 128.20 8.04Q128.32 7.69 128.43 7.33Q128.53 6.97 128.65 6.51L128.65 6.51Q128.00 6.73 127.45 7.01Q126.90 7.28 126.53 7.59L126.53 7.59Q126.41 7.50 126.27 7.34Q126.14 7.17 126.03 6.96Q125.92 6.76 125.83 6.55Q125.75 6.34 125.73 6.17L125.73 6.17Q126.15 5.89 126.76 5.66Q127.37 5.42 128.06 5.24Q128.74 5.07 129.46 4.97Q130.17 4.87 130.79 4.87L130.79 4.87Q132.47 4.87 133.39 5.56Q134.32 6.26 134.32 7.46ZM130.73 6.02L130.90 6.29Q130.80 6.41 130.59 6.79Q130.38 7.17 130.11 7.69Q129.84 8.22 129.53 8.83Q129.23 9.45 128.95 10.05L128.95 10.05Q130.00 10.05 130.89 9.86Q131.77 9.66 132.41 9.30Q133.06 8.95 133.41 8.46Q133.77 7.98 133.77 7.39L133.77 7.39Q133.77 6.69 133.27 6.32Q132.76 5.95 131.71 5.95L131.71 5.95Q131.47 5.95 131.24 5.97Q131.00 5.99 130.73 6.02L130.73 6.02ZM144.73 10.74L144.73 10.74Q145.60 9.45 146.45 8.37Q147.29 7.28 148.06 6.50Q148.83 5.71 149.48 5.28Q150.12 4.84 150.60 4.84L150.60 4.84Q150.78 4.84 151.00 4.98Q151.21 5.12 151.40 5.35Q151.59 5.57 151.72 5.83Q151.84 6.09 151.84 6.33L151.84 6.33Q150.98 6.61 150.14 7.06Q149.31 7.52 148.55 8.11Q147.78 8.71 147.09 9.44Q146.40 10.16 145.84 10.99L145.84 10.99Q146.06 11.56 146.39 12.21Q146.72 12.87 147.11 13.47Q147.50 14.08 147.95 14.60Q148.40 15.12 148.86 15.43L148.86 15.43Q148.79 15.58 148.62 15.72Q148.46 15.86 148.26 15.98Q148.06 16.10 147.85 16.17Q147.63 16.24 147.45 16.24L147.45 16.24Q147.08 16.24 146.78 15.90Q146.47 15.55 146.15 14.86Q145.84 14.17 145.49 13.14Q145.15 12.11 144.73 10.74ZM142.62 16.31L142.62 16.31Q142.09 16.18 141.74 15.87Q141.39 15.55 141.09 15.08L141.09 15.08Q141.22 14.81 141.39 14.38Q141.57 13.94 141.82 13.31Q142.07 12.67 142.42 11.78Q142.77 10.89 143.23 9.70L143.23 9.70Q143.53 8.95 143.72 8.43Q143.91 7.91 144.04 7.41Q144.17 6.92 144.30 6.31Q144.42 5.71 144.59 4.79L144.59 4.79Q145.18 4.90 145.66 5.31Q146.15 5.71 146.50 6.29L146.50 6.29Q146.34 6.48 146.14 6.88Q145.94 7.28 145.68 7.84Q145.43 8.40 145.12 9.09Q144.82 9.77 144.48 10.54L144.48 10.54Q143.72 12.22 143.29 13.62Q142.86 15.01 142.62 16.31ZM156.44 17.54L156.44 17.54Q156.35 17.47 156.28 17.31Q156.21 17.15 156.21 17.01L156.21 17.01Q156.91 16.41 157.21 15.86Q157.51 15.32 157.51 14.67L157.51 14.67Q157.51 14.25 157.48 13.95Q157.44 13.65 157.35 13.26L157.35 13.26Q157.70 13.29 158.04 13.38Q158.38 13.47 158.65 13.60Q158.93 13.73 159.11 13.91Q159.29 14.08 159.33 14.25L159.33 14.25Q158.68 16.58 156.44 17.54ZM178.88 12.43L178.88 12.43Q178.88 11.45 179.11 10.51Q179.34 9.56 179.76 8.71Q180.18 7.87 180.76 7.16Q181.34 6.45 182.03 5.94Q182.73 5.42 183.51 5.13Q184.30 4.84 185.12 4.84L185.12 4.84Q186.09 4.84 186.63 5.25Q187.17 5.66 187.17 6.38L187.17 6.38Q187.17 6.66 187.09 6.96Q187.01 7.25 186.86 7.54Q186.72 7.83 186.52 8.09Q186.33 8.36 186.09 8.55L186.09 8.55Q185.72 8.50 185.46 8.22Q185.19 7.95 185.12 7.59L185.12 7.59Q185.61 7.18 185.90 6.74Q186.19 6.30 186.19 5.94L186.19 5.94Q186.19 5.32 185.42 5.32L185.42 5.32Q185.09 5.32 184.75 5.45Q184.41 5.59 184.06 5.82Q183.71 6.06 183.38 6.40Q183.05 6.73 182.77 7.14L182.77 7.14Q180.82 9.94 180.82 12.87L180.82 12.87Q180.82 13.90 181.15 14.53Q181.47 15.16 182 15.27L182 15.27Q182.60 15.13 183.53 14.50Q184.45 13.87 185.54 12.87L185.54 12.87Q185.68 13.01 185.71 13.16L185.71 13.16Q185.30 13.69 184.87 14.18Q184.44 14.67 184.01 15.08Q183.58 15.48 183.17 15.79Q182.76 16.10 182.41 16.27L182.41 16.27Q180.67 16.24 179.77 15.27Q178.88 14.31 178.88 12.43ZM200.21 4.98L200.21 4.98Q200.48 5.10 200.76 5.27Q201.04 5.45 201.28 5.63Q201.52 5.81 201.68 5.98Q201.84 6.16 201.85 6.27L201.85 6.27Q201.61 6.22 201.38 6.20Q201.14 6.17 200.94 6.17L200.94 6.17Q200.31 6.17 199.69 6.48Q199.07 6.79 198.51 7.32Q197.95 7.85 197.47 8.57Q196.99 9.28 196.65 10.09Q196.31 10.91 196.11 11.77Q195.92 12.64 195.92 13.48L195.92 13.48Q195.92 14.57 196.28 15.11Q196.64 15.64 197.34 15.64L197.34 15.64Q197.68 15.64 198.07 15.51Q198.46 15.37 198.87 15.13Q199.28 14.90 199.67 14.56Q200.06 14.22 200.40 13.82L200.40 13.82Q200.89 13.23 201.28 12.48Q201.67 11.73 201.94 10.89Q202.22 10.05 202.36 9.16Q202.51 8.27 202.51 7.42L202.51 7.42Q202.51 7.08 202.50 6.85Q202.48 6.62 202.46 6.46Q202.44 6.30 202.43 6.20Q202.41 6.10 202.40 6.03L202.40 6.03Q202.57 6.12 202.77 6.24Q202.97 6.36 203.15 6.59Q203.32 6.82 203.44 7.20Q203.56 7.57 203.56 8.18L203.56 8.18Q203.56 9.16 203.33 10.10Q203.10 11.05 202.68 11.90Q202.27 12.75 201.71 13.50Q201.15 14.24 200.51 14.80L200.51 14.80Q199.67 15.54 198.72 15.95Q197.76 16.35 196.88 16.35L196.88 16.35Q195.59 16.35 194.91 15.53Q194.24 14.71 194.24 13.12L194.24 13.12Q194.24 12.26 194.42 11.31Q194.61 10.36 194.96 9.44Q195.30 8.51 195.78 7.68Q196.25 6.85 196.82 6.21Q197.39 5.57 198.04 5.19Q198.69 4.82 199.37 4.82L199.37 4.82Q199.60 4.82 199.79 4.85Q199.99 4.89 200.21 4.98ZM212.13 16.24L212.13 16.24Q211.33 16.00 211.05 15.79Q210.77 15.57 210.77 15.19L210.77 15.19Q210.77 14.77 210.97 14.01Q211.16 13.24 211.48 12.31Q211.79 11.37 212.20 10.35Q212.60 9.32 213.02 8.39Q213.44 7.45 213.84 6.67Q214.24 5.89 214.55 5.46L214.55 5.46L214.45 4.87Q214.65 4.87 215.00 4.97Q215.35 5.07 215.70 5.21Q216.06 5.35 216.33 5.49Q216.61 5.64 216.64 5.74L216.64 5.74Q216.57 6.08 216.52 6.76Q216.48 7.43 216.48 8.20L216.48 8.20Q216.48 9.73 216.60 11.19Q216.72 12.66 217.15 14.17L217.15 14.17Q217.38 13.05 217.64 11.94Q217.90 10.82 218.18 9.81Q218.46 8.79 218.74 7.92Q219.02 7.06 219.27 6.40Q219.53 5.75 219.76 5.38Q219.98 5.01 220.16 4.98L220.16 4.98Q220.32 5.01 220.50 5.10Q220.68 5.19 220.85 5.32Q221.02 5.45 221.16 5.60Q221.30 5.75 221.38 5.91L221.38 5.91Q220.93 6.09 220.49 6.76Q220.05 7.43 219.65 8.39Q219.25 9.35 218.91 10.47Q218.57 11.59 218.31 12.68Q218.05 13.76 217.90 14.69Q217.76 15.61 217.74 16.17L217.74 16.17Q217.74 16.20 217.76 16.21L217.76 16.21Q217.71 16.23 217.66 16.23Q217.62 16.23 217.57 16.23L217.57 16.23Q216.93 16.23 216.43 16.07Q215.94 15.90 215.78 15.61L215.78 15.61Q215.49 14.43 215.29 13.34Q215.10 12.25 214.96 11.16Q214.83 10.07 214.75 8.95Q214.68 7.84 214.63 6.62L214.63 6.62Q214.37 7.04 214.07 7.72Q213.78 8.40 213.50 9.21Q213.22 10.02 212.96 10.92Q212.70 11.82 212.51 12.67Q212.31 13.52 212.20 14.29Q212.09 15.05 212.09 15.61L212.09 15.61Q212.09 15.90 212.09 16.03Q212.10 16.16 212.13 16.24ZM228.69 16.24L228.69 16.24Q227.89 16.00 227.61 15.79Q227.33 15.57 227.33 15.19L227.33 15.19Q227.33 14.77 227.53 14.01Q227.72 13.24 228.04 12.31Q228.35 11.37 228.76 10.35Q229.17 9.32 229.59 8.39Q230.01 7.45 230.40 6.67Q230.80 5.89 231.11 5.46L231.11 5.46L231.01 4.87Q231.21 4.87 231.56 4.97Q231.91 5.07 232.27 5.21Q232.62 5.35 232.90 5.49Q233.17 5.64 233.20 5.74L233.20 5.74Q233.13 6.08 233.09 6.76Q233.04 7.43 233.04 8.20L233.04 8.20Q233.04 9.73 233.16 11.19Q233.28 12.66 233.72 14.17L233.72 14.17Q233.94 13.05 234.20 11.94Q234.46 10.82 234.74 9.81Q235.02 8.79 235.30 7.92Q235.58 7.06 235.84 6.40Q236.10 5.75 236.32 5.38Q236.54 5.01 236.73 4.98L236.73 4.98Q236.88 5.01 237.06 5.10Q237.24 5.19 237.41 5.32Q237.58 5.45 237.72 5.60Q237.86 5.75 237.94 5.91L237.94 5.91Q237.50 6.09 237.05 6.76Q236.61 7.43 236.21 8.39Q235.82 9.35 235.47 10.47Q235.13 11.59 234.87 12.68Q234.61 13.76 234.46 14.69Q234.32 15.61 234.30 16.17L234.30 16.17Q234.30 16.20 234.32 16.21L234.32 16.21Q234.28 16.23 234.23 16.23Q234.18 16.23 234.14 16.23L234.14 16.23Q233.49 16.23 232.99 16.07Q232.50 15.90 232.34 15.61L232.34 15.61Q232.05 14.43 231.85 13.34Q231.66 12.25 231.52 11.16Q231.39 10.07 231.31 8.95Q231.24 7.84 231.20 6.62L231.20 6.62Q230.93 7.04 230.64 7.72Q230.34 8.40 230.06 9.21Q229.78 10.02 229.52 10.92Q229.26 11.82 229.07 12.67Q228.87 13.52 228.76 14.29Q228.65 15.05 228.65 15.61L228.65 15.61Q228.65 15.90 228.65 16.03Q228.66 16.16 228.69 16.24ZM249.79 9.21L249.79 9.21Q250.25 9.21 250.51 9.46Q250.77 9.72 250.77 10.16L250.77 10.16Q250.77 10.28 250.75 10.39Q250.73 10.51 250.70 10.60L250.70 10.60Q250.52 10.57 250.29 10.55Q250.07 10.53 249.76 10.53L249.76 10.53Q249.16 10.53 248.54 10.63Q247.93 10.74 247.37 10.81L247.37 10.81Q247.04 11.55 246.78 12.24Q246.51 12.94 246.32 13.51Q246.13 14.08 246.03 14.50Q245.92 14.92 245.91 15.13L245.91 15.13Q247.04 14.90 248.20 14.73Q249.35 14.56 250.63 14.48L250.63 14.48Q250.78 14.71 250.89 14.99Q250.99 15.27 250.99 15.60L250.99 15.60Q250.99 15.68 250.99 15.78Q250.99 15.88 250.96 15.97L250.96 15.97Q250.57 15.96 250.14 15.95Q249.70 15.95 249.00 15.95L249.00 15.95Q248.54 15.95 248.13 15.97Q247.72 15.99 247.30 16.03Q246.88 16.07 246.41 16.14Q245.94 16.21 245.35 16.31L245.35 16.31Q244.71 16.06 244.10 15.08L244.10 15.08Q244.34 14.57 244.77 13.54Q245.20 12.52 245.85 10.79L245.85 10.79Q245.22 10.60 245.03 10.09L245.03 10.09Q245.10 10.02 245.43 9.92Q245.77 9.81 246.26 9.70L246.26 9.70Q246.47 9.16 246.62 8.75Q246.76 8.34 246.88 7.99Q246.99 7.63 247.08 7.29Q247.17 6.94 247.25 6.54L247.25 6.54Q246.76 6.51 246.48 6.27Q246.20 6.02 246.20 5.63L246.20 5.63Q246.20 5.52 246.24 5.36Q246.27 5.21 246.32 5.10L246.32 5.10Q246.60 5.14 246.85 5.15Q247.11 5.17 247.53 5.17L247.53 5.17Q248.42 5.17 249.19 5.12Q249.96 5.07 250.58 5.01Q251.20 4.96 251.65 4.91Q252.10 4.86 252.34 4.86L252.34 4.86Q252.66 4.86 252.91 5.19Q253.16 5.53 253.29 6.15L253.29 6.15Q252.85 6.10 252.58 6.09Q252.31 6.08 252.10 6.08L252.10 6.08Q251.33 6.08 250.69 6.15Q250.05 6.23 249.47 6.31L249.47 6.31Q249.38 6.44 249.28 6.64Q249.17 6.83 249.00 7.18Q248.84 7.53 248.59 8.06Q248.35 8.60 248.00 9.39L248.00 9.39Q248.53 9.31 249.00 9.26Q249.47 9.21 249.79 9.21ZM259.97 12.43L259.97 12.43Q259.97 11.45 260.20 10.51Q260.43 9.56 260.85 8.71Q261.27 7.87 261.85 7.16Q262.43 6.45 263.12 5.94Q263.82 5.42 264.60 5.13Q265.38 4.84 266.21 4.84L266.21 4.84Q267.18 4.84 267.72 5.25Q268.25 5.66 268.25 6.38L268.25 6.38Q268.25 6.66 268.18 6.96Q268.10 7.25 267.95 7.54Q267.81 7.83 267.61 8.09Q267.41 8.36 267.18 8.55L267.18 8.55Q266.81 8.50 266.55 8.22Q266.28 7.95 266.21 7.59L266.21 7.59Q266.70 7.18 266.99 6.74Q267.27 6.30 267.27 5.94L267.27 5.94Q267.27 5.32 266.50 5.32L266.50 5.32Q266.18 5.32 265.84 5.45Q265.50 5.59 265.15 5.82Q264.80 6.06 264.47 6.40Q264.14 6.73 263.86 7.14L263.86 7.14Q261.91 9.94 261.91 12.87L261.91 12.87Q261.91 13.90 262.23 14.53Q262.56 15.16 263.09 15.27L263.09 15.27Q263.69 15.13 264.61 14.50Q265.54 13.87 266.63 12.87L266.63 12.87Q266.77 13.01 266.80 13.16L266.80 13.16Q266.39 13.69 265.96 14.18Q265.52 14.67 265.10 15.08Q264.67 15.48 264.26 15.79Q263.84 16.10 263.49 16.27L263.49 16.27Q261.76 16.24 260.86 15.27Q259.97 14.31 259.97 12.43ZM277.45 6.69L277.45 6.69Q276.89 6.69 276.59 6.38Q276.29 6.06 276.29 5.61L276.29 5.61Q276.29 5.50 276.33 5.35Q276.36 5.19 276.42 5.08L276.42 5.08Q276.60 5.17 276.96 5.20Q277.31 5.24 277.79 5.24L277.79 5.24Q278.50 5.24 279.41 5.17Q280.31 5.11 281.13 5.04Q281.96 4.97 282.59 4.91Q283.22 4.84 283.40 4.84L283.40 4.84Q283.92 4.84 284.15 5.23Q284.38 5.61 284.49 6.26L284.49 6.26Q284.13 6.23 283.77 6.21Q283.42 6.19 283.16 6.19L283.16 6.19Q282.72 6.19 282.26 6.22Q281.81 6.24 281.34 6.30L281.34 6.30Q281.15 6.71 280.91 7.26Q280.67 7.81 280.44 8.41Q280.21 9.02 280 9.61Q279.79 10.21 279.64 10.68L279.64 10.68Q279.33 11.61 279.10 12.39Q278.87 13.17 278.69 13.85Q278.52 14.53 278.39 15.15Q278.26 15.76 278.17 16.35L278.17 16.35Q277.23 16.21 276.60 15.18L276.60 15.18Q276.71 14.74 276.87 14.23Q277.03 13.72 277.25 13.07Q277.47 12.42 277.76 11.59Q278.05 10.77 278.43 9.72L278.43 9.72Q278.57 9.32 278.73 8.90Q278.88 8.47 279.03 8.05Q279.17 7.63 279.29 7.24Q279.41 6.85 279.50 6.52L279.50 6.52Q278.91 6.59 278.38 6.64Q277.86 6.69 277.45 6.69ZM301.83 12.57L301.83 12.57Q301.32 12.57 301.02 12.33Q300.72 12.08 300.72 11.65L300.72 11.65Q300.72 11.58 300.76 11.43Q300.79 11.28 300.82 11.21L300.82 11.21Q301.08 11.26 301.33 11.27Q301.57 11.28 301.97 11.28L301.97 11.28Q302.79 11.28 303.52 11.24Q304.25 11.20 304.84 11.14Q305.42 11.09 305.84 11.05Q306.26 11.00 306.49 11.00L306.49 11.00Q306.80 11.00 307.03 11.33Q307.27 11.65 307.38 12.25L307.38 12.25Q306.98 12.21 306.72 12.19Q306.46 12.18 306.26 12.18L306.26 12.18Q305.56 12.18 304.96 12.24Q304.36 12.31 303.83 12.38Q303.30 12.45 302.81 12.51Q302.32 12.57 301.83 12.57ZM326.48 16.24L326.48 16.24Q325.81 16.04 325.55 15.85Q325.29 15.65 325.29 15.36L325.29 15.36Q325.29 15.13 325.42 14.73Q325.54 14.32 325.79 13.77Q326.03 13.22 326.38 12.54Q326.72 11.87 327.15 11.10L327.15 11.10Q326.79 11.09 326.50 11.08Q326.21 11.07 326.03 11.07L326.03 11.07Q326.12 10.86 326.51 10.71Q326.90 10.56 327.54 10.44L327.54 10.44Q328.09 9.53 328.71 8.71Q329.34 7.88 329.97 7.19Q330.60 6.50 331.23 5.97Q331.86 5.45 332.43 5.14L332.43 5.14Q332.44 5.04 332.45 4.97Q332.46 4.90 332.46 4.87L332.46 4.87Q332.65 4.87 332.98 4.97Q333.31 5.07 333.63 5.21Q333.94 5.35 334.19 5.49Q334.43 5.64 334.46 5.74L334.46 5.74Q334.00 6.55 333.55 8.17Q333.10 9.79 332.81 12.04L332.81 12.04Q332.74 12.60 332.69 13.31Q332.64 14.03 332.64 14.91L332.64 14.91Q332.64 15.22 332.64 15.54Q332.64 15.86 332.67 16.21L332.67 16.21Q332.64 16.23 332.61 16.23Q332.58 16.23 332.50 16.23L332.50 16.23Q332.30 16.23 332.05 16.16Q331.79 16.10 331.54 16.01Q331.30 15.92 331.12 15.81Q330.95 15.69 330.90 15.61L330.90 15.61Q330.89 15.43 330.89 15.25Q330.89 15.08 330.89 14.88L330.89 14.88Q330.89 14.01 330.95 13.12Q331.02 12.22 331.17 11.27L331.17 11.27Q330.97 11.26 330.65 11.23Q330.33 11.21 329.93 11.20Q329.53 11.19 329.08 11.16Q328.62 11.14 328.19 11.13L328.19 11.13Q327.85 11.76 327.56 12.38Q327.26 13.01 327.05 13.64L327.05 13.64Q326.82 14.31 326.67 14.98Q326.52 15.65 326.48 16.24ZM331.88 7.83L331.88 7.83Q331.94 7.63 332.02 7.29Q332.09 6.94 332.16 6.57L332.16 6.57Q331.81 6.69 331.39 7.03Q330.96 7.36 330.51 7.86Q330.05 8.36 329.58 8.98Q329.11 9.60 328.68 10.30L328.68 10.30Q329.85 10.21 331.35 10.18L331.35 10.18Q331.46 9.59 331.60 9.01Q331.73 8.43 331.88 7.83ZM347.05 14.38L347.05 14.38Q347.40 14.98 347.40 15.54L347.40 15.54Q347.40 15.67 347.38 15.77Q347.35 15.88 347.33 15.99L347.33 15.99Q347.09 15.96 346.83 15.95Q346.57 15.93 346.29 15.93L346.29 15.93Q345.95 15.93 345.61 15.95Q345.27 15.97 344.85 16.02Q344.43 16.06 343.91 16.13Q343.39 16.20 342.71 16.31L342.71 16.31Q342.38 16.20 342.06 15.87Q341.74 15.54 341.46 15.08L341.46 15.08Q341.60 14.77 341.81 14.31Q342.02 13.86 342.30 13.21Q342.58 12.56 342.92 11.68Q343.27 10.81 343.66 9.66L343.66 9.66Q343.91 8.90 344.09 8.33Q344.27 7.76 344.42 7.22Q344.57 6.68 344.71 6.09Q344.85 5.50 345.02 4.73L345.02 4.73Q345.58 4.84 345.99 5.14Q346.40 5.45 346.78 6.01L346.78 6.01Q346.67 6.19 346.49 6.59Q346.30 7 346.06 7.58Q345.81 8.16 345.52 8.90Q345.23 9.63 344.90 10.47L344.90 10.47Q344.60 11.30 344.30 12.03Q344.01 12.75 343.78 13.34Q343.55 13.93 343.41 14.35Q343.27 14.77 343.27 14.98L343.27 14.98Q343.49 14.97 343.67 14.95Q343.85 14.94 344.05 14.90Q344.25 14.87 344.48 14.82Q344.71 14.77 345.03 14.69L345.03 14.69Q345.31 14.62 345.55 14.57Q345.79 14.52 346.02 14.48Q346.25 14.45 346.49 14.43Q346.74 14.41 347.05 14.38ZM361.05 14.38L361.05 14.38Q361.40 14.98 361.40 15.54L361.40 15.54Q361.40 15.67 361.38 15.77Q361.35 15.88 361.33 15.99L361.33 15.99Q361.09 15.96 360.83 15.95Q360.57 15.93 360.29 15.93L360.29 15.93Q359.95 15.93 359.61 15.95Q359.27 15.97 358.85 16.02Q358.43 16.06 357.91 16.13Q357.39 16.20 356.71 16.31L356.71 16.31Q356.38 16.20 356.06 15.87Q355.74 15.54 355.46 15.08L355.46 15.08Q355.60 14.77 355.81 14.31Q356.02 13.86 356.30 13.21Q356.58 12.56 356.92 11.68Q357.27 10.81 357.66 9.66L357.66 9.66Q357.91 8.90 358.09 8.33Q358.27 7.76 358.42 7.22Q358.57 6.68 358.71 6.09Q358.85 5.50 359.02 4.73L359.02 4.73Q359.58 4.84 359.99 5.14Q360.40 5.45 360.78 6.01L360.78 6.01Q360.67 6.19 360.49 6.59Q360.30 7 360.06 7.58Q359.81 8.16 359.52 8.90Q359.23 9.63 358.90 10.47L358.90 10.47Q358.60 11.30 358.30 12.03Q358.01 12.75 357.78 13.34Q357.55 13.93 357.41 14.35Q357.27 14.77 357.27 14.98L357.27 14.98Q357.49 14.97 357.67 14.95Q357.85 14.94 358.05 14.90Q358.25 14.87 358.48 14.82Q358.71 14.77 359.03 14.69L359.03 14.69Q359.31 14.62 359.55 14.57Q359.79 14.52 360.02 14.48Q360.25 14.45 360.49 14.43Q360.74 14.41 361.05 14.38ZM380.59 14.38L380.59 14.38Q380.59 13.87 380.75 13.07Q380.91 12.26 381.17 11.33Q381.43 10.40 381.77 9.43Q382.10 8.46 382.45 7.60Q382.80 6.75 383.14 6.10Q383.47 5.46 383.74 5.18L383.74 5.18Q383.88 5.19 384.11 5.29Q384.34 5.38 384.58 5.50Q384.82 5.63 385.01 5.78Q385.21 5.92 385.27 6.05L385.27 6.05Q384.86 6.41 384.46 7.15Q384.06 7.88 383.69 8.82Q383.32 9.76 383.00 10.80Q382.68 11.84 382.44 12.82Q382.20 13.80 382.07 14.64Q381.93 15.48 381.93 16.00L381.93 16.00Q381.93 16.24 381.98 16.30L381.98 16.30Q381.67 16.28 381.53 16.19Q381.39 16.10 381.31 16.00Q381.23 15.89 381.17 15.79Q381.11 15.68 380.98 15.62L380.98 15.62Q380.88 15.58 380.81 15.43Q380.74 15.27 380.70 15.09Q380.65 14.90 380.62 14.70Q380.59 14.50 380.59 14.38ZM392.83 16.24L392.83 16.24Q392.03 16.00 391.75 15.79Q391.47 15.57 391.47 15.19L391.47 15.19Q391.47 14.77 391.66 14.01Q391.86 13.24 392.18 12.31Q392.49 11.37 392.90 10.35Q393.30 9.32 393.72 8.39Q394.14 7.45 394.54 6.67Q394.94 5.89 395.25 5.46L395.25 5.46L395.15 4.87Q395.35 4.87 395.70 4.97Q396.05 5.07 396.40 5.21Q396.76 5.35 397.03 5.49Q397.31 5.64 397.33 5.74L397.33 5.74Q397.26 6.08 397.22 6.76Q397.18 7.43 397.18 8.20L397.18 8.20Q397.18 9.73 397.30 11.19Q397.42 12.66 397.85 14.17L397.85 14.17Q398.08 13.05 398.34 11.94Q398.59 10.82 398.87 9.81Q399.15 8.79 399.43 7.92Q399.71 7.06 399.97 6.40Q400.23 5.75 400.46 5.38Q400.68 5.01 400.86 4.98L400.86 4.98Q401.02 5.01 401.20 5.10Q401.38 5.19 401.55 5.32Q401.72 5.45 401.86 5.60Q402.00 5.75 402.08 5.91L402.08 5.91Q401.63 6.09 401.19 6.76Q400.75 7.43 400.35 8.39Q399.95 9.35 399.61 10.47Q399.27 11.59 399.01 12.68Q398.75 13.76 398.60 14.69Q398.45 15.61 398.44 16.17L398.44 16.17Q398.44 16.20 398.45 16.21L398.45 16.21Q398.41 16.23 398.36 16.23Q398.31 16.23 398.27 16.23L398.27 16.23Q397.63 16.23 397.13 16.07Q396.63 15.90 396.48 15.61L396.48 15.61Q396.19 14.43 395.99 13.34Q395.79 12.25 395.66 11.16Q395.53 10.07 395.45 8.95Q395.37 7.84 395.33 6.62L395.33 6.62Q395.07 7.04 394.77 7.72Q394.48 8.40 394.20 9.21Q393.92 10.02 393.66 10.92Q393.40 11.82 393.20 12.67Q393.01 13.52 392.90 14.29Q392.78 15.05 392.78 15.61L392.78 15.61Q392.78 15.90 392.79 16.03Q392.80 16.16 392.83 16.24ZM424.93 4.98L424.93 4.98Q425.19 5.10 425.47 5.27Q425.75 5.45 425.99 5.63Q426.23 5.81 426.39 5.98Q426.55 6.16 426.57 6.27L426.57 6.27Q426.33 6.22 426.09 6.20Q425.85 6.17 425.66 6.17L425.66 6.17Q425.03 6.17 424.40 6.48Q423.78 6.79 423.22 7.32Q422.66 7.85 422.18 8.57Q421.71 9.28 421.37 10.09Q421.02 10.91 420.83 11.77Q420.63 12.64 420.63 13.48L420.63 13.48Q420.63 14.57 420.99 15.11Q421.36 15.64 422.06 15.64L422.06 15.64Q422.39 15.64 422.79 15.51Q423.18 15.37 423.58 15.13Q423.99 14.90 424.38 14.56Q424.77 14.22 425.11 13.82L425.11 13.82Q425.60 13.23 425.99 12.48Q426.38 11.73 426.66 10.89Q426.93 10.05 427.08 9.16Q427.22 8.27 427.22 7.42L427.22 7.42Q427.22 7.08 427.21 6.85Q427.20 6.62 427.18 6.46Q427.15 6.30 427.14 6.20Q427.13 6.10 427.11 6.03L427.11 6.03Q427.28 6.12 427.48 6.24Q427.69 6.36 427.86 6.59Q428.04 6.82 428.16 7.20Q428.27 7.57 428.27 8.18L428.27 8.18Q428.27 9.16 428.04 10.10Q427.81 11.05 427.40 11.90Q426.99 12.75 426.43 13.50Q425.87 14.24 425.22 14.80L425.22 14.80Q424.38 15.54 423.43 15.95Q422.48 16.35 421.60 16.35L421.60 16.35Q420.31 16.35 419.63 15.53Q418.95 14.71 418.95 13.12L418.95 13.12Q418.95 12.26 419.14 11.31Q419.33 10.36 419.67 9.44Q420.01 8.51 420.49 7.68Q420.97 6.85 421.53 6.21Q422.10 5.57 422.75 5.19Q423.40 4.82 424.09 4.82L424.09 4.82Q424.31 4.82 424.51 4.85Q424.70 4.89 424.93 4.98ZM436.84 16.24L436.84 16.24Q436.04 16.00 435.76 15.79Q435.48 15.57 435.48 15.19L435.48 15.19Q435.48 14.77 435.68 14.01Q435.88 13.24 436.19 12.31Q436.51 11.37 436.91 10.35Q437.32 9.32 437.74 8.39Q438.16 7.45 438.56 6.67Q438.96 5.89 439.26 5.46L439.26 5.46L439.17 4.87Q439.36 4.87 439.71 4.97Q440.06 5.07 440.42 5.21Q440.78 5.35 441.05 5.49Q441.32 5.64 441.35 5.74L441.35 5.74Q441.28 6.08 441.24 6.76Q441.20 7.43 441.20 8.20L441.20 8.20Q441.20 9.73 441.32 11.19Q441.43 12.66 441.87 14.17L441.87 14.17Q442.09 13.05 442.35 11.94Q442.61 10.82 442.89 9.81Q443.17 8.79 443.45 7.92Q443.73 7.06 443.99 6.40Q444.25 5.75 444.47 5.38Q444.70 5.01 444.88 4.98L444.88 4.98Q445.03 5.01 445.21 5.10Q445.40 5.19 445.56 5.32Q445.73 5.45 445.87 5.60Q446.01 5.75 446.10 5.91L446.10 5.91Q445.65 6.09 445.21 6.76Q444.77 7.43 444.37 8.39Q443.97 9.35 443.63 10.47Q443.28 11.59 443.02 12.68Q442.76 13.76 442.62 14.69Q442.47 15.61 442.46 16.17L442.46 16.17Q442.46 16.20 442.47 16.21L442.47 16.21Q442.43 16.23 442.38 16.23Q442.33 16.23 442.29 16.23L442.29 16.23Q441.64 16.23 441.15 16.07Q440.65 15.90 440.50 15.61L440.50 15.61Q440.20 14.43 440.01 13.34Q439.81 12.25 439.68 11.16Q439.54 10.07 439.47 8.95Q439.39 7.84 439.35 6.62L439.35 6.62Q439.08 7.04 438.79 7.72Q438.49 8.40 438.21 9.21Q437.93 10.02 437.68 10.92Q437.42 11.82 437.22 12.67Q437.02 13.52 436.91 14.29Q436.80 15.05 436.80 15.61L436.80 15.61Q436.80 15.90 436.81 16.03Q436.81 16.16 436.84 16.24ZM457.94 9.21L457.94 9.21Q458.40 9.21 458.66 9.46Q458.92 9.72 458.92 10.16L458.92 10.16Q458.92 10.28 458.90 10.39Q458.88 10.51 458.85 10.60L458.85 10.60Q458.67 10.57 458.44 10.55Q458.22 10.53 457.91 10.53L457.91 10.53Q457.31 10.53 456.69 10.63Q456.08 10.74 455.52 10.81L455.52 10.81Q455.20 11.55 454.93 12.24Q454.66 12.94 454.48 13.51Q454.29 14.08 454.18 14.50Q454.08 14.92 454.06 15.13L454.06 15.13Q455.20 14.90 456.35 14.73Q457.51 14.56 458.78 14.48L458.78 14.48Q458.93 14.71 459.04 14.99Q459.14 15.27 459.14 15.60L459.14 15.60Q459.14 15.68 459.14 15.78Q459.14 15.88 459.12 15.97L459.12 15.97Q458.72 15.96 458.29 15.95Q457.86 15.95 457.16 15.95L457.16 15.95Q456.69 15.95 456.28 15.97Q455.87 15.99 455.45 16.03Q455.03 16.07 454.56 16.14Q454.09 16.21 453.50 16.31L453.50 16.31Q452.86 16.06 452.26 15.08L452.26 15.08Q452.49 14.57 452.92 13.54Q453.35 12.52 454.01 10.79L454.01 10.79Q453.38 10.60 453.18 10.09L453.18 10.09Q453.25 10.02 453.59 9.92Q453.92 9.81 454.41 9.70L454.41 9.70Q454.62 9.16 454.77 8.75Q454.92 8.34 455.03 7.99Q455.14 7.63 455.23 7.29Q455.32 6.94 455.41 6.54L455.41 6.54Q454.92 6.51 454.64 6.27Q454.36 6.02 454.36 5.63L454.36 5.63Q454.36 5.52 454.39 5.36Q454.43 5.21 454.47 5.10L454.47 5.10Q454.75 5.14 455.01 5.15Q455.27 5.17 455.69 5.17L455.69 5.17Q456.57 5.17 457.34 5.12Q458.11 5.07 458.73 5.01Q459.35 4.96 459.80 4.91Q460.25 4.86 460.49 4.86L460.49 4.86Q460.81 4.86 461.06 5.19Q461.31 5.53 461.44 6.15L461.44 6.15Q461.01 6.10 460.73 6.09Q460.46 6.08 460.25 6.08L460.25 6.08Q459.48 6.08 458.84 6.15Q458.21 6.23 457.62 6.31L457.62 6.31Q457.53 6.44 457.43 6.64Q457.32 6.83 457.16 7.18Q456.99 7.53 456.74 8.06Q456.50 8.60 456.15 9.39L456.15 9.39Q456.68 9.31 457.15 9.26Q457.62 9.21 457.94 9.21ZM487.55 7.63L487.55 7.63Q487.55 8.40 487.17 9.10Q486.78 9.80 486.13 10.32Q485.48 10.85 484.60 11.16Q483.73 11.47 482.75 11.47L482.75 11.47Q482.40 11.47 482.20 11.38Q481.99 11.28 481.74 11.02L481.74 11.02Q481.04 12.54 480.60 13.82Q480.16 15.11 479.91 16.31L479.91 16.31Q479.37 16.18 479.04 15.87Q478.70 15.55 478.42 15.08L478.42 15.08Q478.56 14.81 478.76 14.38Q478.95 13.94 479.23 13.31Q479.51 12.67 479.89 11.78Q480.26 10.89 480.76 9.70L480.76 9.70Q480.98 9.16 481.15 8.75Q481.32 8.34 481.45 7.99Q481.57 7.63 481.68 7.28Q481.78 6.93 481.89 6.51L481.89 6.51Q481.24 6.72 480.68 7Q480.13 7.28 479.77 7.59L479.77 7.59Q479.64 7.50 479.51 7.34Q479.37 7.17 479.26 6.96Q479.15 6.76 479.07 6.55Q478.98 6.34 478.97 6.17L478.97 6.17Q479.37 5.89 479.98 5.66Q480.58 5.42 481.26 5.24Q481.95 5.07 482.69 4.97Q483.42 4.87 484.09 4.87L484.09 4.87Q484.89 4.87 485.53 5.07Q486.18 5.28 486.63 5.64Q487.07 6.01 487.31 6.51Q487.55 7.01 487.55 7.63ZM485.06 5.95L485.06 5.95Q484.53 5.95 483.97 6.03L483.97 6.03L484.13 6.29Q483.99 6.47 483.78 6.83Q483.57 7.20 483.32 7.71Q483.07 8.22 482.77 8.85Q482.47 9.48 482.13 10.18L482.13 10.18Q483.22 10.18 484.12 9.97Q485.02 9.77 485.65 9.41Q486.29 9.06 486.65 8.58Q487.00 8.11 487.00 7.56L487.00 7.56Q487.00 6.83 486.51 6.39Q486.02 5.95 485.06 5.95ZM499.21 14.38L499.21 14.38Q499.56 14.98 499.56 15.54L499.56 15.54Q499.56 15.67 499.54 15.77Q499.52 15.88 499.49 15.99L499.49 15.99Q499.25 15.96 499.00 15.95Q498.74 15.93 498.46 15.93L498.46 15.93Q498.12 15.93 497.78 15.95Q497.43 15.97 497.01 16.02Q496.59 16.06 496.08 16.13Q495.56 16.20 494.87 16.31L494.87 16.31Q494.55 16.20 494.23 15.87Q493.91 15.54 493.63 15.08L493.63 15.08Q493.77 14.77 493.98 14.31Q494.19 13.86 494.47 13.21Q494.75 12.56 495.09 11.68Q495.43 10.81 495.82 9.66L495.82 9.66Q496.08 8.90 496.26 8.33Q496.44 7.76 496.59 7.22Q496.73 6.68 496.87 6.09Q497.01 5.50 497.18 4.73L497.18 4.73Q497.74 4.84 498.16 5.14Q498.57 5.45 498.95 6.01L498.95 6.01Q498.83 6.19 498.65 6.59Q498.47 7 498.23 7.58Q497.98 8.16 497.69 8.90Q497.39 9.63 497.07 10.47L497.07 10.47Q496.76 11.30 496.47 12.03Q496.17 12.75 495.94 13.34Q495.71 13.93 495.57 14.35Q495.43 14.77 495.43 14.98L495.43 14.98Q495.66 14.97 495.84 14.95Q496.02 14.94 496.22 14.90Q496.41 14.87 496.64 14.82Q496.87 14.77 497.20 14.69L497.20 14.69Q497.48 14.62 497.71 14.57Q497.95 14.52 498.18 14.48Q498.41 14.45 498.66 14.43Q498.90 14.41 499.21 14.38ZM508.63 16.24L508.63 16.24Q507.96 16.04 507.70 15.85Q507.44 15.65 507.44 15.36L507.44 15.36Q507.44 15.13 507.57 14.73Q507.70 14.32 507.94 13.77Q508.19 13.22 508.53 12.54Q508.87 11.87 509.31 11.10L509.31 11.10Q508.94 11.09 508.66 11.08Q508.37 11.07 508.19 11.07L508.19 11.07Q508.27 10.86 508.66 10.71Q509.05 10.56 509.70 10.44L509.70 10.44Q510.24 9.53 510.87 8.71Q511.49 7.88 512.12 7.19Q512.75 6.50 513.38 5.97Q514.01 5.45 514.58 5.14L514.58 5.14Q514.60 5.04 514.61 4.97Q514.61 4.90 514.61 4.87L514.61 4.87Q514.81 4.87 515.14 4.97Q515.47 5.07 515.78 5.21Q516.10 5.35 516.34 5.49Q516.59 5.64 516.61 5.74L516.61 5.74Q516.15 6.55 515.70 8.17Q515.26 9.79 514.96 12.04L514.96 12.04Q514.89 12.60 514.84 13.31Q514.79 14.03 514.79 14.91L514.79 14.91Q514.79 15.22 514.79 15.54Q514.79 15.86 514.82 16.21L514.82 16.21Q514.79 16.23 514.77 16.23Q514.74 16.23 514.65 16.23L514.65 16.23Q514.46 16.23 514.20 16.16Q513.94 16.10 513.70 16.01Q513.45 15.92 513.28 15.81Q513.10 15.69 513.06 15.61L513.06 15.61Q513.04 15.43 513.04 15.25Q513.04 15.08 513.04 14.88L513.04 14.88Q513.04 14.01 513.11 13.12Q513.17 12.22 513.32 11.27L513.32 11.27Q513.13 11.26 512.81 11.23Q512.48 11.21 512.09 11.20Q511.69 11.19 511.23 11.16Q510.78 11.14 510.34 11.13L510.34 11.13Q510.01 11.76 509.71 12.38Q509.42 13.01 509.21 13.64L509.21 13.64Q508.97 14.31 508.82 14.98Q508.68 15.65 508.63 16.24ZM514.04 7.83L514.04 7.83Q514.09 7.63 514.17 7.29Q514.25 6.94 514.32 6.57L514.32 6.57Q513.97 6.69 513.54 7.03Q513.11 7.36 512.66 7.86Q512.20 8.36 511.74 8.98Q511.27 9.60 510.83 10.30L510.83 10.30Q512.01 10.21 513.51 10.18L513.51 10.18Q513.62 9.59 513.75 9.01Q513.88 8.43 514.04 7.83ZM524.36 12.43L524.36 12.43Q524.36 11.45 524.59 10.51Q524.82 9.56 525.24 8.71Q525.66 7.87 526.24 7.16Q526.82 6.45 527.51 5.94Q528.21 5.42 528.99 5.13Q529.77 4.84 530.60 4.84L530.60 4.84Q531.57 4.84 532.11 5.25Q532.64 5.66 532.64 6.38L532.64 6.38Q532.64 6.66 532.57 6.96Q532.49 7.25 532.34 7.54Q532.20 7.83 532 8.09Q531.80 8.36 531.57 8.55L531.57 8.55Q531.20 8.50 530.94 8.22Q530.67 7.95 530.60 7.59L530.60 7.59Q531.09 7.18 531.38 6.74Q531.66 6.30 531.66 5.94L531.66 5.94Q531.66 5.32 530.89 5.32L530.89 5.32Q530.57 5.32 530.23 5.45Q529.89 5.59 529.54 5.82Q529.19 6.06 528.86 6.40Q528.53 6.73 528.25 7.14L528.25 7.14Q526.30 9.94 526.30 12.87L526.30 12.87Q526.30 13.90 526.62 14.53Q526.95 15.16 527.48 15.27L527.48 15.27Q528.08 15.13 529.00 14.50Q529.93 13.87 531.02 12.87L531.02 12.87Q531.16 13.01 531.19 13.16L531.19 13.16Q530.78 13.69 530.35 14.18Q529.91 14.67 529.49 15.08Q529.06 15.48 528.65 15.79Q528.23 16.10 527.88 16.27L527.88 16.27Q526.15 16.24 525.25 15.27Q524.36 14.31 524.36 12.43ZM544.95 9.21L544.95 9.21Q545.41 9.21 545.67 9.46Q545.93 9.72 545.93 10.16L545.93 10.16Q545.93 10.28 545.91 10.39Q545.89 10.51 545.86 10.60L545.86 10.60Q545.68 10.57 545.45 10.55Q545.23 10.53 544.92 10.53L544.92 10.53Q544.32 10.53 543.70 10.63Q543.09 10.74 542.53 10.81L542.53 10.81Q542.21 11.55 541.94 12.24Q541.67 12.94 541.49 13.51Q541.30 14.08 541.19 14.50Q541.09 14.92 541.07 15.13L541.07 15.13Q542.21 14.90 543.36 14.73Q544.52 14.56 545.79 14.48L545.79 14.48Q545.94 14.71 546.05 14.99Q546.15 15.27 546.15 15.60L546.15 15.60Q546.15 15.68 546.15 15.78Q546.15 15.88 546.13 15.97L546.13 15.97Q545.73 15.96 545.30 15.95Q544.87 15.95 544.17 15.95L544.17 15.95Q543.70 15.95 543.29 15.97Q542.88 15.99 542.46 16.03Q542.04 16.07 541.57 16.14Q541.10 16.21 540.51 16.31L540.51 16.31Q539.87 16.06 539.27 15.08L539.27 15.08Q539.50 14.57 539.93 13.54Q540.36 12.52 541.02 10.79L541.02 10.79Q540.39 10.60 540.19 10.09L540.19 10.09Q540.26 10.02 540.60 9.92Q540.93 9.81 541.42 9.70L541.42 9.70Q541.63 9.16 541.78 8.75Q541.93 8.34 542.04 7.99Q542.15 7.63 542.24 7.29Q542.33 6.94 542.42 6.54L542.42 6.54Q541.93 6.51 541.65 6.27Q541.37 6.02 541.37 5.63L541.37 5.63Q541.37 5.52 541.40 5.36Q541.44 5.21 541.48 5.10L541.48 5.10Q541.76 5.14 542.02 5.15Q542.28 5.17 542.70 5.17L542.70 5.17Q543.58 5.17 544.35 5.12Q545.12 5.07 545.74 5.01Q546.36 4.96 546.81 4.91Q547.26 4.86 547.50 4.86L547.50 4.86Q547.82 4.86 548.07 5.19Q548.32 5.53 548.45 6.15L548.45 6.15Q548.02 6.10 547.74 6.09Q547.47 6.08 547.26 6.08L547.26 6.08Q546.49 6.08 545.85 6.15Q545.22 6.23 544.63 6.31L544.63 6.31Q544.54 6.44 544.44 6.64Q544.33 6.83 544.17 7.18Q544.00 7.53 543.75 8.06Q543.51 8.60 543.16 9.39L543.16 9.39Q543.69 9.31 544.16 9.26Q544.63 9.21 544.95 9.21Z"></path></g></svg>